<mxfile host="app.diagrams.net" modified="2023-08-28T14:29:24.585Z" agent="Mozilla/5.0 (Windows NT 10.0; Win64; x64) AppleWebKit/537.36 (KHTML, like Gecko) Chrome/116.0.0.0 Safari/537.36" version="21.6.9" etag="BVRgMEZOlN8Z2qEfUayq" type="github">
  <diagram name="PÃ¡gina-1" id="0Ty_sDFkYVkqrAu91aK4">
    <mxGraphModel>
      <root>
        <mxCell id="0" />
        <mxCell id="1" parent="0" />
      </root>
    </mxGraphModel>
  </diagram>
</mxfile>
